<svg xmlns="http://www.w3.org/2000/svg" width="25" height="18" viewBox="0 0 25 18"><defs><clipPath id="3it2a"><path fill="#fff" d="M9.615 1.03l.707-.707 7.97 7.97h.001L19 9l-.707.707-7.97 7.97-.708-.706L17.585 9z"/></clipPath><clipPath id="3it2b"><path fill="#fff" d="M15.615 1.03l.707-.707 7.97 7.97L25 9l-.707.707-7.97 7.97-.708-.706L23.585 9z"/></clipPath><clipPath id="3it2c"><path fill="#fff" d="M0 9V8h24v1z"/></clipPath></defs><g><g><path fill="none" stroke="#bb9c66" stroke-miterlimit="20" stroke-width="2" d="M9.615 1.03l.707-.707 7.97 7.97h.001L19 9l-.707.707h0l-7.97 7.97-.708-.706L17.585 9z" clip-path="url(&quot;#3it2a&quot;)"/></g><g><path fill="none" stroke="#bb9c66" stroke-miterlimit="20" stroke-width="2" d="M15.615 1.03l.707-.707 7.97 7.97h0L25 9l-.707.707h0l-7.97 7.97-.708-.706L23.585 9z" clip-path="url(&quot;#3it2b&quot;)"/></g><g><path fill="none" stroke="#bb9c66" stroke-miterlimit="20" stroke-width="6" d="M0 9v0-1 0h24v1z" clip-path="url(&quot;#3it2c&quot;)"/></g></g></svg>