<svg xmlns="http://www.w3.org/2000/svg" width="20" height="21" viewBox="0 0 20 21"><defs><clipPath id="hgepa"><path fill="#fff" d="M20 11c0 5.523-4.477 10-10 10S0 16.523 0 11 4.477 1 10 1v1a9 9 0 1 0 6.364 2.636l.707-.707A9.969 9.969 0 0 1 20 11z"/></clipPath><clipPath id="hgepb"><path fill="#fff" d="M1 1V0h9v9H9V1z"/></clipPath></defs><g><g><path fill="none" stroke="#bb9c66" stroke-miterlimit="20" stroke-width="2" d="M20 11c0 5.523-4.477 10-10 10S0 16.523 0 11 4.477 1 10 1v1a9 9 0 1 0 6.364 2.636l.707-.707A9.969 9.969 0 0 1 20 11z" clip-path="url(&quot;#hgepa&quot;)"/></g><g><path fill="none" stroke="#bb9c66" stroke-miterlimit="20" stroke-width="2" d="M1 1V0h9v9H9V1z" clip-path="url(&quot;#hgepb&quot;)"/></g></g></svg>