<svg xmlns="http://www.w3.org/2000/svg" width="25" height="25" viewBox="0 0 25 25"><g><g><path fill="#1c242a" d="M12.5.007L24.993 12.5 12.5 24.993.007 12.5z"/></g><g><path fill="#fff" d="M12.105 18C10.215 18 8 15.37 8 13.127V8.25c0-.449.307-.813.684-.813.378 0 .684.364.684.813v3.177c.21-.01.44-.004.684.01V6.625c0-.449.307-.812.685-.812.377 0 .684.363.684.812v4.875c.224 0 .454-.009.684-.02V5.814c0-.45.306-.813.684-.813.378 0 .684.364.684.813v5.609c.24 0 .47.013.684.045v-4.03c0-.448.306-.812.684-.812.378 0 .684.364.684.812v4.899c.687-.64 2.137-1.738 2.475-1.336.4.476-.6 2.524-1 3l-3 4c-.156.186-.434-.005-.738-.335a2.267 2.267 0 0 1-1.157.335z"/></g></g></svg>