<svg xmlns="http://www.w3.org/2000/svg" width="108" height="35" viewBox="0 0 108 35"><defs><clipPath id="kkwja"><path fill="#fff" d="M.707 18.2L0 17.5l.707-.7L17.677.01l.708.7L1.415 17.5l16.97 16.79-.707.7L.708 18.2z"/></clipPath><clipPath id="kkwjb"><path fill="#fff" d="M24.678.01l.707.7L8.415 17.5l16.97 16.79-.707.7L7 17.5z"/></clipPath><clipPath id="kkwjc"><path fill="#fff" d="M108 17.5v-.99H1v.99z"/></clipPath></defs><g><g><path fill="none" stroke="#bb9c66" stroke-miterlimit="20" stroke-width="6" d="M.707 18.2L0 17.5l.707-.7h0L17.677.01l.708.7L1.415 17.5l16.97 16.79-.707.7L.708 18.2z" clip-path="url(&quot;#kkwja&quot;)"/></g><g><path fill="none" stroke="#bb9c66" stroke-miterlimit="20" stroke-width="6" d="M24.678.01l.707.7L8.415 17.5l16.97 16.79-.707.7L7 17.5z" clip-path="url(&quot;#kkwjb&quot;)"/></g><g><path fill="none" stroke="#bb9c66" stroke-miterlimit="20" stroke-width="6" d="M108 17.5v0-.99 0H1v.99z" clip-path="url(&quot;#kkwjc&quot;)"/></g></g></svg>