<svg xmlns="http://www.w3.org/2000/svg" width="16" height="15" viewBox="0 0 16 15"><defs><clipPath id="x9f0a"><path fill="#fff" d="M5.879 4.879c.624.624 1.233 1.703 1.49 2.753 1.05.257 2.129.866 2.752 1.49a3 3 0 1 1-4.242 4.242c-.624-.623-1.165-1.771-1.357-2.885-1.114-.193-2.262-.733-2.886-1.357A3 3 0 0 1 5.88 4.879z"/></clipPath></defs><g><g><g><path fill="none" stroke="#fff" stroke-miterlimit="20" stroke-width="4" d="M5.879 4.879c.624.624 1.233 1.703 1.49 2.753 1.05.257 2.129.866 2.752 1.49a3 3 0 1 1-4.242 4.242c-.624-.623-1.165-1.771-1.357-2.885-1.114-.193-2.262-.733-2.886-1.357A3 3 0 0 1 5.88 4.879z" clip-path="url(&quot;#x9f0a&quot;)"/></g><g><path fill="#bb9c66" d="M5 10c.781.781.246 2.584-.535 3.364a2 2 0 1 1-2.829-2.828C2.417 9.755 4.22 9.22 5 10zm3-1L6 7l7-7 1.39 1.39L16 3l-1 1-1-1-1 1 1 1-1 1-1-1z"/></g></g></g></svg>