<svg xmlns="http://www.w3.org/2000/svg" width="10" height="13" viewBox="0 0 10 13"><g><g><path fill="#bb9c66" d="M4.105 13C2.215 13 0 10.37 0 8.126V3.251c0-.449.307-.813.684-.813.378 0 .684.364.684.813v3.177c.21-.01.44-.004.684.01V1.625c0-.449.307-.813.685-.813.377 0 .684.364.684.813V6.5c.224 0 .454-.009.684-.02V.813c0-.449.306-.812.684-.812.378 0 .684.363.684.812v5.61c.24 0 .47.013.684.045v-4.03c0-.448.306-.812.684-.812.378 0 .684.364.684.812v4.899C8.212 6.697 9.662 5.599 10 6c.4.476-.6 2.524-1 3l-3 4c-.156.185-.434-.005-.738-.335A2.267 2.267 0 0 1 4.105 13z"/></g></g></svg>